<?xml version="1.0" encoding="utf-8"?><svg xmlns="http://www.w3.org/2000/svg" xmlns:xlink="http://www.w3.org/1999/xlink"><symbol viewBox="0 0 512 512" id="arrow" xmlns="http://www.w3.org/2000/svg"><path d="M508.875 248.458l-160-160c-4.167-4.167-10.917-4.167-15.083 0-4.167 4.167-4.167 10.917 0 15.083l141.792 141.792H10.667C4.771 245.333 0 250.104 0 256s4.771 10.667 10.667 10.667h464.917L333.792 408.458c-4.167 4.167-4.167 10.917 0 15.083a10.634 10.634 0 007.542 3.125c2.729 0 5.458-1.042 7.542-3.125l160-160c4.166-4.166 4.166-10.916-.001-15.083z"/></symbol><symbol viewBox="0 0 15.304 15.304" id="arrow-up" xmlns="http://www.w3.org/2000/svg"><path d="M12.675 5.92L7.954.216s-.387-.454-.793-.047c-.558.559-4.574 5.889-4.574 5.889s-.713.708.232.708h2.457v8.2s-.011.338.428.338h3.743c.611 0 .506-.404.506-.404V6.596h2.66c.777 0 .062-.676.062-.676z"/></symbol><symbol viewBox="0 0 512 512" id="bell" xmlns="http://www.w3.org/2000/svg"><path d="M467.819 431.851l-36.651-61.056a181.486 181.486 0 01-25.835-93.312V224c0-82.325-67.008-149.333-149.333-149.333S106.667 141.675 106.667 224v53.483c0 32.875-8.939 65.131-25.835 93.312l-36.651 61.056a10.665 10.665 0 00-.149 10.731 10.704 10.704 0 009.301 5.419h405.333c3.84 0 7.403-2.069 9.301-5.419a10.665 10.665 0 00-.148-10.731zm-395.648-5.184l26.944-44.907A202.631 202.631 0 00128 277.483V224c0-70.592 57.408-128 128-128s128 57.408 128 128v53.483c0 36.736 9.984 72.789 28.864 104.277l26.965 44.907H72.171z"/><path d="M256 0c-23.531 0-42.667 19.136-42.667 42.667v42.667C213.333 91.221 218.112 96 224 96s10.667-4.779 10.667-10.667V42.667c0-11.776 9.557-21.333 21.333-21.333s21.333 9.557 21.333 21.333v42.667C277.333 91.221 282.112 96 288 96s10.667-4.779 10.667-10.667V42.667C298.667 19.136 279.531 0 256 0zm46.165 431.936c-3.008-5.077-9.515-6.741-14.613-3.819-5.099 2.987-6.805 9.536-3.819 14.613 2.773 4.715 4.288 10.368 4.288 15.936 0 17.643-14.357 32-32 32s-32-14.357-32-32c0-5.568 1.515-11.221 4.288-15.936 2.965-5.099 1.259-11.627-3.819-14.613-5.141-2.923-11.627-1.259-14.613 3.819-4.715 8.064-7.211 17.301-7.211 26.731C202.667 488.085 226.581 512 256 512s53.333-23.915 53.376-53.333c0-9.43-2.496-18.667-7.211-26.731z"/></symbol><symbol viewBox="0 0 512.003 512.003" id="bookmark" xmlns="http://www.w3.org/2000/svg"><path d="M362.668 0H149.335c-23.521 0-42.667 19.135-42.667 42.667v458.667c0 4.063 2.313 7.771 5.958 9.573 3.688 1.792 8 1.365 11.208-1.115l132.167-101.667 132.167 101.667a10.656 10.656 0 006.5 2.208c1.604 0 3.208-.365 4.708-1.094a10.683 10.683 0 005.958-9.573V42.667C405.335 19.135 386.189 0 362.668 0z"/></symbol><symbol viewBox="0 0 512.001 512.001" id="close" xmlns="http://www.w3.org/2000/svg"><path d="M284.286 256.002L506.143 34.144c7.811-7.811 7.811-20.475 0-28.285-7.811-7.81-20.475-7.811-28.285 0L256 227.717 34.143 5.859c-7.811-7.811-20.475-7.811-28.285 0-7.81 7.811-7.811 20.475 0 28.285l221.857 221.857L5.858 477.859c-7.811 7.811-7.811 20.475 0 28.285a19.938 19.938 0 0014.143 5.857 19.94 19.94 0 0014.143-5.857L256 284.287l221.857 221.857c3.905 3.905 9.024 5.857 14.143 5.857s10.237-1.952 14.143-5.857c7.811-7.811 7.811-20.475 0-28.285L284.286 256.002z"/></symbol><symbol viewBox="0 0 511.096 511.096" id="comment" xmlns="http://www.w3.org/2000/svg"><path d="M74.414 480.548H38.2l25.607-25.607c13.807-13.807 22.429-31.765 24.747-51.246C29.427 364.893 0 308.681 0 249.751 0 141.032 99.923 30.548 256.414 30.548c165.785 0 254.682 101.666 254.682 209.678 0 108.724-89.836 210.322-254.682 210.322-28.877 0-59.01-3.855-85.913-10.928-25.467 26.121-59.973 40.928-96.087 40.928z"/></symbol><symbol viewBox="0 0 488.471 488.471" id="effect" xmlns="http://www.w3.org/2000/svg"><path d="M427.412 122.118c0-33.723 27.337-61.059 61.059-61.059-33.721 0-61.059-27.337-61.059-61.059 0 33.721-27.337 61.059-61.059 61.059 33.721 0 61.059 27.335 61.059 61.059zm15.265 61.058c0 25.291-20.503 45.794-45.794 45.794 25.292 0 45.794 20.503 45.794 45.794 0-25.292 20.503-45.794 45.794-45.794-25.292.001-45.794-20.502-45.794-45.794zm-228.971 0c0-50.583 41.005-91.588 91.588-91.588-50.583 0-91.588-41.005-91.588-91.588 0 50.583-41.005 91.588-91.588 91.588 50.583 0 91.588 41.006 91.588 91.588zm122.118-91.588L0 427.412l61.059 61.059 335.824-335.824zm-52.115 97.909l43.17-43.17 15.265 15.265-43.17 43.17-15.265-15.265z"/></symbol><symbol viewBox="0 0 512 512" id="eye" xmlns="http://www.w3.org/2000/svg"><path d="M508.177 245.995C503.607 240.897 393.682 121 256 121S8.394 240.897 3.823 245.995a15.002 15.002 0 000 20.01C8.394 271.103 118.32 391 256 391s247.606-119.897 252.177-124.995a15.004 15.004 0 000-20.01zM256 361c-57.891 0-105-47.109-105-105s47.109-105 105-105 105 47.109 105 105-47.109 105-105 105z"/><path d="M271 226c0-15.09 7.491-28.365 18.887-36.53C279.661 184.235 268.255 181 256 181c-41.353 0-75 33.647-75 75s33.647 75 75 75c37.024 0 67.668-27.034 73.722-62.358C299.516 278.367 271 255.522 271 226z"/></symbol><symbol viewBox="0 0 479.447 479.447" id="globe" xmlns="http://www.w3.org/2000/svg"><path d="M239.446.022c-8.594 0-17.182.462-25.727 1.383-7.832.8-15.568 2.112-23.2 3.704a219.68 219.68 0 00-4.432.976A239.735 239.735 0 0067.831 72.301a257.357 257.357 0 00-8.8 9.488c-87.06 99.948-76.612 251.548 23.337 338.608 95.688 83.349 239.723 77.803 328.719-12.656a248.136 248.136 0 008.8-9.488 239.597 239.597 0 0059.56-158.232c0-132.549-107.452-240-240.001-239.999zM78.495 84.301c1.264-1.312 2.576-2.568 3.864-3.84 1.488-1.464 2.968-2.936 4.488-4.352 1.336-1.248 2.712-2.448 4.08-3.664 1.544-1.368 3.08-2.736 4.664-4.056 1.392-1.176 2.824-2.304 4.248-3.44 1.6-1.28 3.2-2.56 4.848-3.792a154.97 154.97 0 014.424-3.2c1.656-1.184 3.32-2.4 5.008-3.504a214.122 214.122 0 014.576-3 166.785 166.785 0 015.168-3.2 260.346 260.346 0 0110.056-5.704c1.6-.853 3.2-1.688 4.8-2.504a233.35 233.35 0 015.512-2.68c1.6-.76 3.264-1.52 4.912-2.24 1.88-.8 3.784-1.6 5.688-2.4 1.656-.68 3.304-1.344 4.976-1.984 1.936-.736 3.896-1.424 5.856-2.112a248.54 248.54 0 015.04-1.72c1.992-.64 4-1.232 6.016-1.816 1.688-.488 3.36-.992 5.056-1.448.648-.168 1.296-.304 1.944-.472a198.501 198.501 0 00-51.128 83.024 268.7 268.7 0 01-54.816-21.096c.264-.28.488-.56.72-.8zm-11.504 12.88a277.951 277.951 0 0060.712 24.16 415.133 415.133 0 00-16.152 110.68h-95.92a223.516 223.516 0 0151.36-134.84zm0 285.68a223.545 223.545 0 01-51.36-134.84h95.92a415.093 415.093 0 0016.152 110.68 278.14 278.14 0 00-60.712 24.16zm114.736 73.568c-1.616-.408-3.288-.936-4.952-1.424-2.024-.592-4.056-1.184-6.056-1.832-1.688-.544-3.352-1.128-5.016-1.712a190.556 190.556 0 01-5.88-2.12 219.712 219.712 0 01-4.952-1.968c-1.912-.8-3.824-1.6-5.72-2.4a208.937 208.937 0 01-4.872-2.224c-1.864-.88-3.72-1.776-5.6-2.704-1.6-.8-3.2-1.6-4.8-2.472-1.808-.968-3.6-1.96-5.392-2.984-1.6-.888-3.12-1.8-4.664-2.728a195.557 195.557 0 01-5.216-3.256c-1.52-.968-3.04-1.952-4.536-2.96a221.149 221.149 0 01-5.064-3.552c-1.464-1.048-2.928-2.096-4.368-3.2a206.328 206.328 0 01-4.896-3.832c-1.416-1.128-2.824-2.248-4.208-3.408-1.6-1.328-3.144-2.712-4.696-4.088-1.36-1.208-2.728-2.4-4.056-3.632-1.528-1.424-3.008-2.904-4.496-4.368-1.288-1.272-2.6-2.528-3.864-3.832-.232-.248-.456-.504-.688-.744a268.507 268.507 0 0154.816-21.104 198.55 198.55 0 0051.128 83.024c-.648-.168-1.304-.304-1.952-.48zm49.72 6.96c-34.232-4.864-64.24-40.592-83.12-93.352a406.55 406.55 0 0183.12-9.784v103.136zm0-119.136a421.293 421.293 0 00-88.144 10.512 400.211 400.211 0 01-15.752-106.744h103.896v96.232zm0-112.232H127.551a400.13 400.13 0 0115.752-106.744 421.434 421.434 0 0088.144 10.512v96.232zm0-112.232a406.124 406.124 0 01-83.12-9.784c18.88-52.76 48.888-88.488 83.12-93.352v103.136zm180.456-22.608a223.545 223.545 0 0151.36 134.84h-95.92a415.093 415.093 0 00-16.152-110.68 278.24 278.24 0 0060.712-24.16zm-114.8-73.576c1.68.416 3.352.944 5.016 1.432 2.024.592 4.056 1.184 6.056 1.832 1.688.544 3.352 1.128 5.016 1.712 1.968.68 3.936 1.376 5.88 2.12 1.664.632 3.304 1.296 4.952 1.968 1.912.8 3.824 1.6 5.72 2.4 1.632.72 3.256 1.461 4.872 2.224 1.864.88 3.72 1.776 5.6 2.704 1.6.8 3.2 1.6 4.8 2.472 1.808.968 3.6 1.96 5.392 2.984 1.6.888 3.12 1.8 4.664 2.728a195.557 195.557 0 015.216 3.256c1.52.968 3.04 1.952 4.536 2.96a220.35 220.35 0 015.056 3.544 185.57 185.57 0 014.384 3.2c1.648 1.24 3.264 2.528 4.888 3.824 1.408 1.12 2.824 2.24 4.208 3.408 1.6 1.328 3.144 2.712 4.696 4.088 1.36 1.208 2.728 2.4 4.056 3.632 1.528 1.424 3.008 2.904 4.496 4.368 1.288 1.272 2.6 2.528 3.864 3.832.232.248.456.504.688.744a268.507 268.507 0 01-54.816 21.104 198.54 198.54 0 00-51.192-83.016c.648.168 1.304.304 1.952.48zm-49.656-6.952c34.232 4.864 64.24 40.592 83.12 93.352a406.55 406.55 0 01-83.12 9.784V16.653zm0 119.136a421.293 421.293 0 0088.144-10.512 400.211 400.211 0 0115.752 106.744H247.447v-96.232zm0 112.232h103.896a400.13 400.13 0 01-15.752 106.744 421.426 421.426 0 00-88.144-10.512v-96.232zm0 215.368V360.253c27.97.39 55.824 3.669 83.12 9.784-18.88 52.76-48.888 88.488-83.12 93.352zm152.952-67.648c-1.264 1.304-2.568 2.56-3.856 3.832-1.488 1.464-2.976 2.944-4.504 4.368-1.328 1.24-2.696 2.4-4.056 3.64-1.552 1.376-3.096 2.752-4.68 4.08-1.4 1.168-2.824 2.296-4.248 3.432-1.6 1.28-3.2 2.56-4.848 3.792a154.97 154.97 0 01-4.424 3.2c-1.656 1.184-3.32 2.4-5.008 3.504a186.92 186.92 0 01-4.576 2.992 158.284 158.284 0 01-5.176 3.2c-1.6.936-3.128 1.848-4.704 2.752a238.159 238.159 0 01-10.144 5.456 233.35 233.35 0 01-5.512 2.68c-1.6.76-3.264 1.52-4.912 2.24-1.88.8-3.784 1.6-5.688 2.4-1.656.672-3.304 1.344-4.968 1.976-1.952.744-3.912 1.44-5.88 2.12a205.317 205.317 0 01-5.016 1.712c-2 .648-4 1.24-6.04 1.824-1.672.496-3.352.992-5.04 1.448-.648.168-1.296.304-1.944.472a198.501 198.501 0 0051.128-83.024 268.7 268.7 0 0154.816 21.096c-.264.288-.488.568-.72.808zm11.504-12.88a277.951 277.951 0 00-60.712-24.16 415.133 415.133 0 0016.152-110.68h95.92a223.512 223.512 0 01-51.36 134.84z"/></symbol><symbol viewBox="0 0 64 64" id="ink-pen" xmlns="http://www.w3.org/2000/svg"><path d="M61.7 17.858a1 1 0 00-1.414 0L38.849 39.293a3 3 0 01-4.243 0l-9.9-9.9a3.005 3.005 0 010-4.243L46.142 3.716A1 1 0 0044.728 2.3L23.293 23.737a4.993 4.993 0 00-.752 6.073L9.007 37.93 2.014 61.961l24.055-6.968 8.121-13.534a4.959 4.959 0 006.073-.752L61.7 19.272a1 1 0 000-1.414zM24.759 53.291L6.971 58.443l9.322-9.322a5 5 0 10-1.414-1.414l-9.357 9.356 5.186-17.821 13.137-7.882 8.8 8.8zm-7.83-10.463a3 3 0 110 4.243 3 3 0 010-4.243z"/></symbol><symbol viewBox="0 0 477.389 477.389" id="link" xmlns="http://www.w3.org/2000/svg"><path d="M451.209 68.647a89.462 89.462 0 00-63.312-26.226 88.987 88.987 0 00-63.266 26.197L209.056 184.194a89.615 89.615 0 00-22.869 87.518c2.559 9.072 11.988 14.352 21.06 11.793 9.072-2.559 14.352-11.988 11.793-21.06a55.481 55.481 0 0114.148-54.118L348.763 92.768c21.608-21.613 56.646-21.617 78.259-.008 21.613 21.608 21.617 56.646.009 78.259L311.456 286.594a55.16 55.16 0 01-27.682 15.002c-9.228 1.921-15.151 10.959-13.23 20.187a17.067 17.067 0 0016.762 13.588 16.88 16.88 0 003.55-.375 89.205 89.205 0 0044.732-24.269l115.576-115.558c34.95-34.926 34.97-91.571.045-126.522z"/><path d="M290.702 206.142c-2.559-9.072-11.988-14.352-21.06-11.793s-14.352 11.988-11.793 21.06a55.481 55.481 0 01-14.148 54.118L128.125 385.103c-21.608 21.613-56.646 21.617-78.259.008-21.613-21.608-21.617-56.646-.009-78.259l115.576-115.593a55.083 55.083 0 0127.648-15.002c9.243-1.849 15.237-10.84 13.388-20.082s-10.84-15.237-20.082-13.388a89.342 89.342 0 00-45.086 24.34L25.725 282.703c-34.676 35.211-34.242 91.865.969 126.541 34.827 34.297 90.731 34.301 125.563.008l115.575-115.593a89.612 89.612 0 0022.87-87.517z"/></symbol><symbol viewBox="0 0 512 512" id="search" xmlns="http://www.w3.org/2000/svg"><path d="M508.875 493.792L353.089 338.005c32.358-35.927 52.245-83.296 52.245-135.339C405.333 90.917 314.417 0 202.667 0S0 90.917 0 202.667s90.917 202.667 202.667 202.667c52.043 0 99.411-19.887 135.339-52.245l155.786 155.786a10.634 10.634 0 007.542 3.125c2.729 0 5.458-1.042 7.542-3.125 4.166-4.167 4.166-10.917-.001-15.083zM202.667 384c-99.979 0-181.333-81.344-181.333-181.333S102.688 21.333 202.667 21.333 384 102.677 384 202.667 302.646 384 202.667 384z"/></symbol><symbol viewBox="0 -22 512 511" id="share" xmlns="http://www.w3.org/2000/svg"><path d="M512 233.82L299.223.5v139.203h-45.239C113.711 139.703 0 253.414 0 393.687v73.77l20.094-22.02a360.573 360.573 0 01266.324-117.5h12.805v139.204zm0 0"/></symbol><symbol viewBox="0 0 490.523 490.523" id="up-arrow" xmlns="http://www.w3.org/2000/svg"><path d="M487.411 355.047L252.744 120.38c-4.165-4.164-10.917-4.164-15.083 0L2.994 355.047c-4.093 4.237-3.976 10.99.262 15.083a10.666 10.666 0 0014.821 0l227.115-227.115 227.115 227.136c4.237 4.093 10.99 3.976 15.083-.261 3.993-4.134 3.993-10.688 0-14.821l.021-.022z"/><path d="M479.859 373.266a10.663 10.663 0 01-7.552-3.115L245.192 143.015 18.077 370.151c-4.237 4.093-10.99 3.976-15.083-.262a10.666 10.666 0 010-14.821l234.667-234.667c4.165-4.164 10.917-4.164 15.083 0l234.667 234.667c4.159 4.172 4.148 10.926-.024 15.085a10.667 10.667 0 01-7.528 3.113z"/></symbol></svg>